<svg xmlns="http://www.w3.org/2000/svg" width="24.972" height="24.973" viewBox="0 0 24.972 24.973">
    <g>
        <path fill="#c3c3c3" d="M24.341 18.419l-3.1-3.1a2.2 2.2 0 0 0-3.1 0L16.73 16.73a1.665 1.665 0 0 1-2.352 0L8.252 10.6a1.662 1.662 0 0 1 0-2.352l1.411-1.407a2.194 2.194 0 0 0 0-3.105L6.559.642a2.2 2.2 0 0 0-3.1 0L2.326 1.761a7.925 7.925 0 0 0 0 11.195l9.691 9.7a7.912 7.912 0 0 0 11.2 0l1.129-1.129a2.2 2.2 0 0 0-.005-3.108zM4.489 1.677a.733.733 0 0 1 1.036 0l3.1 3.094a.731.731 0 0 1 0 1.035l-.517.517-4.133-4.136zm8.562 19.941l-9.691-9.7a6.433 6.433 0 0 1-.4-8.682l4.121 4.128a3.123 3.123 0 0 0 .136 4.275l6.116 6.121a3.123 3.123 0 0 0 4.275.136l4.125 4.125a6.421 6.421 0 0 1-8.681-.403zm10.254-1.129l-.517.517-4.139-4.139.517-.517a.733.733 0 0 1 1.035 0l3.1 3.1a.733.733 0 0 1 .005 1.039z" transform="translate(-.011)"/>
    </g>
</svg>
