<svg xmlns="http://www.w3.org/2000/svg" width="36.718" height="27.211" viewBox="0 0 36.718 27.211">
    <defs>
        <style>
            .cls-1{fill:#2b2c2f;stroke:#2b2c2f;stroke-width:.5px}
        </style>
    </defs>
    <g id="_005-identification" transform="translate(.25 .25)">
        <path id="Path_560" d="M118.526 89.552a3.9 3.9 0 1 0-3.9-3.9 3.9 3.9 0 0 0 3.9 3.9zm0-6.285a2.392 2.392 0 1 1-2.392 2.392 2.392 2.392 0 0 1 2.392-2.392zm0 0" class="cls-1" transform="translate(-107.706 -76.498)"/>
        <path id="Path_561" d="M85.991 234.873a5.854 5.854 0 0 0-4.24 1.773A6.258 6.258 0 0 0 80 241.075a.757.757 0 0 0 .755.755h10.473a.757.757 0 0 0 .755-.755 6.258 6.258 0 0 0-1.751-4.429 5.854 5.854 0 0 0-4.241-1.773zm-4.429 5.448a4.616 4.616 0 0 1 1.268-2.621 4.445 4.445 0 0 1 6.323 0 4.637 4.637 0 0 1 1.268 2.618zm0 0" class="cls-1" transform="translate(-75.171 -220.378)"/>
        <path id="Path_562" d="M32.445-5.25H3.773A3.774 3.774 0 0 0 0-1.477v19.165a3.774 3.774 0 0 0 3.773 3.773h28.672a3.774 3.774 0 0 0 3.773-3.773V-1.477a3.774 3.774 0 0 0-3.773-3.773zm2.264 22.938a2.27 2.27 0 0 1-2.264 2.264H3.773a2.27 2.27 0 0 1-2.264-2.264V-1.477a2.27 2.27 0 0 1 2.264-2.264h28.672a2.27 2.27 0 0 1 2.264 2.264zm0 0" class="cls-1" transform="translate(0 5.25)"/>
        <path id="Path_563" d="M358.17 203.5h-8.79a.755.755 0 1 0 0 1.509h8.79a.755.755 0 0 0 0-1.509zm0 0" class="cls-1" transform="translate(-327.581 -190.899)"/>
        <path id="Path_564" d="M358.17 283.5h-8.79a.755.755 0 1 0 0 1.509h8.79a.755.755 0 0 0 0-1.509zm0 0" class="cls-1" transform="translate(-327.581 -266.07)"/>
        <path id="Path_565" d="M358.17 123.5h-8.79a.755.755 0 1 0 0 1.509h8.79a.755.755 0 0 0 0-1.509zm0 0" class="cls-1" transform="translate(-327.581 -115.728)"/>
    </g>
</svg>
