<svg xmlns="http://www.w3.org/2000/svg" width="104.166" height="82.465" viewBox="0 0 104.166 82.465">
    <defs>
        <style>
            .cls-1{fill:#2b2c2f}
        </style>
    </defs>
    <g id="car" transform="translate(0 -53.333)">
        <g id="Group_217" transform="translate(2.17 96.736)">
            <g id="Group_216">
                <path id="Path_541" d="M38.244 280.321l-10.477-10.477a10.789 10.789 0 0 0-7.673-3.177h-7.258a2.17 2.17 0 1 0 0 4.34h7.257a6.556 6.556 0 0 1 4.6 1.905l6.775 6.775H12.836a2.17 2.17 0 0 0 0 4.34h23.872a2.173 2.173 0 0 0 1.537-3.707z" class="cls-1" transform="translate(-10.666 -266.667)"/>
            </g>
        </g>
        <g id="Group_219" transform="translate(4.34 118.437)">
            <g id="Group_218">
                <path id="Path_542" d="M45.2 375.5a2.171 2.171 0 0 0-2.17 2.17v6.51a2.174 2.174 0 0 1-2.17 2.17H27.843a2.174 2.174 0 0 1-2.17-2.17v-8.68a2.17 2.17 0 1 0-4.34 0v8.681a6.518 6.518 0 0 0 6.51 6.51h13.021a6.518 6.518 0 0 0 6.51-6.51v-6.51A2.171 2.171 0 0 0 45.2 375.5z" class="cls-1" transform="translate(-21.333 -373.333)"/>
            </g>
        </g>
        <g id="Group_221" transform="translate(0 79.375)">
            <g id="Group_220">
                <path id="Path_543" d="M94.318 185.922c-5.981-3.129-19.405-4.588-42.235-4.588s-36.254 1.458-42.235 4.588C3.034 189.481 0 195.427 0 205.205a77.3 77.3 0 0 0 2.244 17.921 2.165 2.165 0 0 0 2.1 1.61h19.015l8.22 4.11a2.177 2.177 0 0 0 .972.23h39.063a2.145 2.145 0 0 0 .968-.23l8.225-4.11h19.019a2.165 2.165 0 0 0 2.1-1.61 77.3 77.3 0 0 0 2.244-17.921c-.004-9.778-3.038-15.724-9.852-19.283zm3.793 34.478H80.3a2.15 2.15 0 0 0-.972.23l-8.225 4.11H33.064l-8.22-4.11a2.177 2.177 0 0 0-.972-.23H6.059a74.626 74.626 0 0 1-1.719-15.195c0-8.173 2.179-12.647 7.513-15.438 5.2-2.717 18.733-4.093 40.23-4.093s35.03 1.376 40.23 4.093c5.334 2.791 7.513 7.266 7.513 15.438a75.008 75.008 0 0 1-1.715 15.195z" class="cls-1" transform="translate(0 -181.334)"/>
            </g>
        </g>
        <g id="Group_223" transform="translate(73.785 96.736)">
            <g id="Group_222">
                <path id="Path_544" d="M388.712 279.688H370.08l6.771-6.775a6.566 6.566 0 0 1 4.605-1.905h7.257a2.17 2.17 0 1 0 0-4.34h-7.257a10.789 10.789 0 0 0-7.673 3.177L363.3 280.322a2.173 2.173 0 0 0 1.536 3.707h23.871a2.17 2.17 0 1 0 0-4.34z" class="cls-1" transform="translate(-362.672 -266.667)"/>
            </g>
        </g>
        <g id="Group_225" transform="translate(26.041 96.736)">
            <g id="Group_224">
                <path id="Path_545" d="M179.876 267.917a2.173 2.173 0 0 0-1.966-1.25h-47.743a2.169 2.169 0 0 0-1.667 3.559l10.851 13.021a2.172 2.172 0 0 0 1.667.781h26.042a2.172 2.172 0 0 0 1.667-.781l10.851-13.021a2.165 2.165 0 0 0 .298-2.309zm-13.837 11.771h-24.006l-7.235-8.681h38.476z" class="cls-1" transform="translate(-127.996 -266.667)"/>
            </g>
        </g>
        <g id="Group_227" transform="translate(8.681 53.333)">
            <g id="Group_226">
                <path id="Path_546" d="M129.3 85.021c-2.47-5.677-10.733-24.388-13.607-26.832-3.581-3.043-13.837-4.857-27.448-4.857H83.9c-13.611 0-23.867 1.814-27.448 4.852-2.872 2.445-11.141 21.156-13.606 26.833a2.172 2.172 0 0 0 3.984 1.732c4.9-11.28 10.894-23.815 12.435-25.252 1.671-1.419 8.741-3.824 24.635-3.824h4.34c15.894 0 22.964 2.4 24.627 3.815 1.549 1.445 7.543 13.976 12.444 25.26a2.171 2.171 0 0 0 3.984-1.727z" class="cls-1" transform="translate(-42.668 -53.333)"/>
            </g>
        </g>
        <g id="Group_229" transform="translate(73.784 118.437)">
            <g id="Group_228">
                <path id="Path_547" d="M386.537 373.333a2.171 2.171 0 0 0-2.17 2.17v8.681a2.174 2.174 0 0 1-2.17 2.17h-13.021a2.174 2.174 0 0 1-2.17-2.17v-6.51a2.17 2.17 0 0 0-4.34 0v6.51a6.518 6.518 0 0 0 6.51 6.51H382.2a6.518 6.518 0 0 0 6.51-6.51V375.5a2.17 2.17 0 0 0-2.173-2.167z" class="cls-1" transform="translate(-362.665 -373.333)"/>
            </g>
        </g>
    </g>
</svg>
