<svg xmlns="http://www.w3.org/2000/svg" width="178.724" height="142" viewBox="0 0 178.724 142">
    <defs>
        <style>
            .cls-2{fill:#2b2c2f}
        </style>
    </defs>
    <g id="car" opacity="0.05" transform="translate(0 -53.333)">
        <g id="Group_217" transform="translate(3.745 128.025)">
            <g id="Group_216">
                <path id="Path_541" d="M58.262 290.232L40.179 272.15a18.621 18.621 0 0 0-13.243-5.483H14.411a3.745 3.745 0 1 0 0 7.49h12.525a11.315 11.315 0 0 1 7.94 3.288l11.693 11.693H14.411a3.745 3.745 0 1 0 0 7.491h41.2a3.75 3.75 0 0 0 2.652-6.4z" class="cls-2" transform="translate(-10.666 -266.667)"/>
            </g>
        </g>
        <g id="Group_219" transform="translate(7.491 165.37)">
            <g id="Group_218">
                <path id="Path_542" d="M62.532 377.078a3.747 3.747 0 0 0-3.745 3.745v11.237a3.752 3.752 0 0 1-3.745 3.745H32.569a3.752 3.752 0 0 1-3.745-3.745v-14.982a3.745 3.745 0 1 0-7.491 0v14.982a11.249 11.249 0 0 0 11.236 11.24h22.472a11.249 11.249 0 0 0 11.236-11.24v-11.236a3.747 3.747 0 0 0-3.745-3.746z" class="cls-2" transform="translate(-21.333 -373.333)"/>
            </g>
        </g>
        <g id="Group_221" transform="translate(0 97.955)">
            <g id="Group_220">
                <path id="Path_543" d="M161.827 189.251c-10.262-5.4-33.295-7.917-72.465-7.917s-62.2 2.517-72.465 7.917C5.205 195.394 0 205.656 0 222.532a134.149 134.149 0 0 0 3.85 30.929 3.718 3.718 0 0 0 3.6 2.779h32.629l14.1 7.094a3.718 3.718 0 0 0 1.668.4h67.022a3.663 3.663 0 0 0 1.661-.4l14.112-7.094h32.632a3.718 3.718 0 0 0 3.6-2.779 134.147 134.147 0 0 0 3.85-30.929c0-16.876-5.205-27.138-16.897-33.281zm6.508 59.5h-30.561a3.672 3.672 0 0 0-1.668.4l-14.112 7.094H56.73l-14.1-7.094a3.717 3.717 0 0 0-1.668-.4H10.4a129.515 129.515 0 0 1-2.949-26.217c0-14.1 3.738-21.828 12.89-26.644 8.921-4.689 32.141-7.064 69.025-7.064s60.1 2.375 69.025 7.064c9.152 4.816 12.891 12.539 12.891 26.644a130.179 130.179 0 0 1-2.946 26.215z" class="cls-2" transform="translate(0 -181.334)"/>
            </g>
        </g>
        <g id="Group_223" transform="translate(126.292 128.025)">
            <g id="Group_222">
                <path id="Path_544" d="M407.614 289.139h-32.157l11.685-11.693a11.333 11.333 0 0 1 7.948-3.288h12.524a3.745 3.745 0 0 0 0-7.491H395.09a18.619 18.619 0 0 0-13.243 5.483l-18.082 18.083a3.75 3.75 0 0 0 2.652 6.4h41.2a3.745 3.745 0 0 0 0-7.491z" class="cls-2" transform="translate(-362.672 -266.667)"/>
            </g>
        </g>
        <g id="Group_225" transform="translate(44.417 128.025)">
            <g id="Group_224">
                <path id="Path_545" d="M217.533 268.824a3.75 3.75 0 0 0-3.393-2.157h-82.4a3.743 3.743 0 0 0-2.876 6.142l18.726 22.472a3.749 3.749 0 0 0 2.876 1.348h44.944a3.749 3.749 0 0 0 2.876-1.348l18.726-22.472a3.736 3.736 0 0 0 .521-3.985zm-23.88 20.315h-41.431l-12.487-14.981h66.4z" class="cls-2" transform="translate(-127.996 -266.667)"/>
            </g>
        </g>
        <g id="Group_227" transform="translate(14.982 53.333)">
            <g id="Group_226">
                <path id="Path_546" d="M191.125 108.022c-4.232-9.8-18.394-42.09-23.318-46.307-6.136-5.251-23.713-8.382-47.038-8.382h-7.439c-23.326 0-40.9 3.131-47.038 8.375-4.925 4.217-19.092 36.509-23.319 46.307a3.765 3.765 0 0 0 1.934 4.929A3.708 3.708 0 0 0 49.8 111c8.4-19.468 18.67-41.1 21.31-43.58 2.864-2.449 14.98-6.6 42.219-6.6h7.438c27.238 0 39.355 4.15 42.2 6.584C165.627 69.9 175.9 91.528 184.3 111a3.714 3.714 0 0 0 4.894 1.947 3.768 3.768 0 0 0 1.931-4.925z" class="cls-2" transform="translate(-42.668 -53.333)"/>
            </g>
        </g>
        <g id="Group_229" transform="translate(126.289 165.37)">
            <g id="Group_228">
                <path id="Path_547" d="M403.864 373.333a3.747 3.747 0 0 0-3.745 3.745v14.982a3.752 3.752 0 0 1-3.745 3.745H373.9a3.752 3.752 0 0 1-3.745-3.745v-11.236a3.745 3.745 0 0 0-7.491 0v11.236A11.249 11.249 0 0 0 373.9 403.3h22.472a11.249 11.249 0 0 0 11.236-11.236v-14.986a3.746 3.746 0 0 0-3.744-3.745z" class="cls-2" transform="translate(-362.665 -373.333)"/>
            </g>
        </g>
    </g>
</svg>
