<svg xmlns="http://www.w3.org/2000/svg" width="123.563" height="132.716" viewBox="0 0 123.563 132.716">
    <defs>
        <style>
            .cls-1{fill:#d31f25}
        </style>
    </defs>
    <g id="dinner" transform="translate(-40 -16)">
        <path id="Path_514" d="M112.53 277.125l-1.72-3.784a2.293 2.293 0 0 0-2.083-1.341h-1.305a2.288 2.288 0 0 0-1.546 3.976l10.512 9.636-3.856-8.483z" class="cls-1" transform="translate(-46.503 -182.777)"/>
        <path id="Path_515" d="M213.009 272h-3.9a2.288 2.288 0 0 0-2.009 1.192l-12.428 22.785a2.288 2.288 0 0 1-1.454 1.124l-9.153 2.288a2.288 2.288 0 0 1-1.4-.1l-22.882-9.153a2.288 2.288 0 0 1-1.2-1.1l-7.888-15.776a2.276 2.276 0 0 0-2.053-1.26h-1.505a2.288 2.288 0 0 0-2.083 3.235l8.295 18.245 33.3 28.86h15.164v-4.576a2.288 2.288 0 0 1 .67-1.618l1.9-1.9a6.821 6.821 0 0 0 2.01-4.854v-14.51a2.293 2.293 0 0 1 .205-.947l8.5-18.7a2.288 2.288 0 0 0-2.089-3.235z" class="cls-1" transform="translate(-74.859 -182.777)"/>
        <path id="Path_516" d="M272 464h22.882v4.576H272z" class="cls-1" transform="translate(-165.642 -319.86)"/>
        <path id="Path_517" d="M180.681 107.476A43.525 43.525 0 0 0 137.205 64h-13.729A43.525 43.525 0 0 0 80 107.476v2.288h100.681z" class="cls-1" transform="translate(-28.559 -34.271)"/>
        <path id="Path_518" d="M42.288 244.576h118.987a2.291 2.291 0 0 0 2.288-2.288V240H40v2.288a2.291 2.291 0 0 0 2.288 2.288z" class="cls-1" transform="translate(0 -159.93)"/>
        <path id="Path_519" d="M236.594 16h-18.306a2.288 2.288 0 0 0 0 4.576h4.576v4.576h9.153v-4.576h4.576a2.288 2.288 0 0 0 0-4.576z" class="cls-1" transform="translate(-125.659)"/>
    </g>
</svg>
