<svg xmlns="http://www.w3.org/2000/svg" width="7.015" height="13.762" viewBox="0 0 7.015 13.762">
    <path fill="#c3c3c3" d="M4.833 13.762H2.854a.637.637 0 0 1-.6-.668V8.123H1.1a.637.637 0 0 1-.6-.668V5.326a.637.637 0 0 1 .6-.668h1.154V3.592A3.876 3.876 0 0 1 3.117.99 2.945 2.945 0 0 1 5.407 0h1.51a.637.637 0 0 1 .6.668v1.98a.637.637 0 0 1-.6.668H5.9c-.31 0-.389.069-.406.09s-.061.135-.061.409v.843h1.406a.561.561 0 0 1 .3.084.686.686 0 0 1 .308.584v2.13a.637.637 0 0 1-.6.667H5.433v4.971a.637.637 0 0 1-.6.668zm-1.854-.807h1.729V7.762a.425.425 0 0 1 .4-.446h1.611V5.465H5.108a.425.425 0 0 1-.4-.446v-1.2a1.488 1.488 0 0 1 .242-.943 1.152 1.152 0 0 1 .95-.367h.891v-1.7H5.407c-1.5 0-2.428 1.067-2.428 2.785v1.425a.425.425 0 0 1-.4.446H1.225v1.852h1.354a.425.425 0 0 1 .4.446zM6.915.81zm0 0" transform="translate(-.5)"/>
</svg>
