<svg xmlns="http://www.w3.org/2000/svg" width="61.762" height="61.764" viewBox="0 0 61.762 61.764">
    <defs>
        <style>
            .cls-1{fill:#e83137}
        </style>
    </defs>
    <g id="Group_47" transform="translate(-2303.999 -521.318)">
        <g id="Group_46" transform="translate(2303.999 521.318)">
            <g id="Group_45">
                <g id="Group_42" transform="translate(13.361 13.362)">
                    <path id="Path_495" d="M2432.82 632.628a17.52 17.52 0 1 0 17.52 17.52 17.54 17.54 0 0 0-17.52-17.52zm0 33.609a16.09 16.09 0 1 1 16.089-16.09 16.108 16.108 0 0 1-16.089 16.09z" class="cls-1" transform="translate(-2415.3 -632.628)"/>
                </g>
                <g id="Group_43" transform="translate(20.236 20.237)">
                    <path id="Path_496" d="M2483.212 689.9a10.645 10.645 0 1 0 10.645 10.645 10.658 10.658 0 0 0-10.645-10.645zm0 19.86a9.215 9.215 0 1 1 9.215-9.215 9.226 9.226 0 0 1-9.215 9.21z" class="cls-1" transform="translate(-2472.567 -689.895)"/>
                </g>
                <g id="Group_44">
                    <path id="Path_497" d="M2365.095 550.591l-5.8-5.8V531.11a.9.9 0 0 0-1.734-.356 41.647 41.647 0 0 0-2.957 9.348l-18.118-18.118a2.275 2.275 0 0 0-3.218 0L2317 538.255v-5.2a.715.715 0 1 0-1.43 0v6.208h-1.625v-6.208a.715.715 0 1 0-1.43 0v6.208h-1.625v-6.208a.715.715 0 1 0-1.43 0v6.923h.013a.737.737 0 0 0 .018.215l1.114 4.457-5.941 5.941a2.278 2.278 0 0 0 0 3.217l6.323 6.323v10.5a2.148 2.148 0 0 0 2.146 2.145h.195a2.148 2.148 0 0 0 2.146-2.145v-6.013l17.8 17.8a2.275 2.275 0 0 0 3.218 0l18.323-18.323v6.647a2.148 2.148 0 0 0 2.146 2.146h.2a2.148 2.148 0 0 0 2.145-2.146v-11.135l5.8-5.8a2.278 2.278 0 0 0-.011-3.216zm-54.108 7.518l-5.312-5.312a.845.845 0 0 1 0-1.195l5.312-5.311zm3.055 12.521a.716.716 0 0 1-.715.715h-.195a.716.716 0 0 1-.715-.715v-2.857l1.625-1.625zm0-7.443v.939l-1.625 1.625v-2.56l1.625-1.625zm0-3.645l-1.625 1.625V546.8h1.625zm.157-14.168h-1.938l-.476-1.9-.694-2.777h4.279zm21.278 36.03a.846.846 0 0 1-1.2 0l-18.809-18.81v-16.417l.077-.311 1.38-5.518L2334.282 523a.845.845 0 0 1 1.2 0l18.872 18.872a28.2 28.2 0 0 0 .1 6.8c0 .028.008.056.011.084q.037.276.08.554l.026.172c.026.164.054.329.083.494l.032.185q.059.326.124.655v11.261zm20.634-31.393l-.032-.185c-.024-.138-.049-.275-.071-.412 0-.019-.006-.037-.009-.056a27.04 27.04 0 0 1-.189-7.666l.042-.346a33.579 33.579 0 0 1 2.02-7.539v16.263h-1.745c-.009-.022-.013-.041-.016-.059zm1.756 1.485v8.155l-1.625 1.625V551.5zm0 19.242a.716.716 0 0 1-.715.715h-.2a.716.716 0 0 1-.715-.715v-2.857l1.625-1.625zm0-6.5l-1.625 1.625V563.3l1.625-1.625zm6.217-11.437l-4.787 4.787v-10.772l4.787 4.787a.846.846 0 0 1-.001 1.197z" class="cls-1" transform="translate(-2303.999 -521.318)"/>
                </g>
            </g>
        </g>
    </g>
</svg>
