<svg xmlns="http://www.w3.org/2000/svg" width="67" height="44.333" viewBox="0 0 67 44.333">
    <defs>
        <style>
            .cls-1{fill:#4b4f58}
        </style>
    </defs>
    <g id="Group_41" transform="translate(-2306.913 -1452.211)">
        <path id="Path_493" d="M2373.913 1465.355c0-7.37-14.715-13.144-33.5-13.144s-33.5 5.773-33.5 13.144c0 .129.006.257.015.385h-.015v3.85a26.985 26.985 0 0 0 26.954 26.954h13.092a26.984 26.984 0 0 0 26.954-26.954v-3.85h-.014c.008-.128.014-.256.014-.385zm-33.5-11.6c17.324 0 31.96 5.314 31.96 11.6a4.084 4.084 0 0 1-.088.837l-.032.135a7.2 7.2 0 0 1-2.685 3.67c-1.4-5.926-13.7-10.418-29.155-10.418s-27.753 4.492-29.155 10.418a7.2 7.2 0 0 1-2.685-3.67l-.033-.135a4.1 4.1 0 0 1-.088-.837c.001-6.29 14.637-11.604 31.961-11.604zm-1.343 23.2l-.4-.007q-.5-.01-1-.026l-.489-.016c-.287-.011-.572-.024-.857-.038-8.622-.421-16.287-2.148-21.385-4.6l-.127-.062-.149-.073a22.05 22.05 0 0 1-1.991-1.123c.095-2.458 2.945-4.922 7.853-6.777 5.3-2 12.367-3.108 19.894-3.108s14.592 1.1 19.894 3.108c4.908 1.855 7.758 4.319 7.853 6.777a22.022 22.022 0 0 1-1.991 1.123l-.148.073-.127.062c-5.1 2.448-12.762 4.174-21.385 4.6-.285.014-.57.027-.857.038l-.489.016q-.5.016-1 .026l-.4.007c-.446.007-.894.012-1.343.012s-.909-.014-1.355-.021zm33.3-7.569v.213a25.442 25.442 0 0 1-25.411 25.401h-13.092a25.442 25.442 0 0 1-25.414-25.414v-.213l.008.01q.16.2.337.4l.013.015a13.62 13.62 0 0 0 2.354 2.056v.011l.313.209c.053.036.11.07.164.105.077.051.156.1.235.151l.209.133c5.631 3.493 15.369 5.82 26.752 6.017h.517q.527.006 1.058.007t1.058-.007H2341.988c11.384-.2 21.121-2.525 26.752-6.017l.209-.133c.07-.044.158-.1.235-.151l.164-.105.313-.209v-.011a13.584 13.584 0 0 0 2.354-2.056l.013-.015q.176-.2.337-.4z" class="cls-1"/>
        <path id="Path_494" d="M2504.678 1543.843a6.464 6.464 0 0 0 4.783-2.066 6.584 6.584 0 0 0 .82-7.607.805.805 0 0 0-.061-.108l-.233-.4-.389.045a6.7 6.7 0 0 0-5.5 1.306 7.952 7.952 0 0 0-8.3-3.321.792.792 0 0 0-.137.031l-.44.109-.071.38a7.929 7.929 0 0 0 .965 9.108 7.817 7.817 0 0 0 5.806 2.518 8.2 8.2 0 0 0 1.424-.127 6.822 6.822 0 0 0 1.333.132zm4.389-8.666a4.89 4.89 0 0 1-5.254 7.054c-.021-.042-.038-.084-.057-.126s-.051-.108-.073-.162-.04-.1-.06-.155-.037-.094-.054-.142-.038-.119-.056-.178c-.013-.041-.027-.081-.039-.123-.018-.064-.033-.129-.049-.194l-.028-.11c-.015-.069-.027-.138-.039-.208-.006-.033-.014-.066-.019-.1-.011-.072-.019-.145-.027-.217 0-.03-.008-.061-.011-.091-.007-.075-.011-.15-.014-.225 0-.028 0-.056-.005-.083v-.224-.083c0-.071.008-.141.012-.211 0-.032 0-.063.006-.1.006-.068.015-.135.024-.2 0-.034.007-.068.012-.1.009-.06.021-.118.033-.178.008-.041.014-.082.023-.123s.023-.093.035-.139.025-.105.04-.157l.028-.088c.021-.068.041-.136.065-.2v-.006a4.677 4.677 0 0 1 .39-.825c.051-.085.106-.166.161-.246a4.852 4.852 0 0 1 .372-.469l.155-.173a5.1 5.1 0 0 1 4.429-1.418zm-11.8 5.11a4.13 4.13 0 1 1 5.7-4.191l.032.055-.017.023c-.042.056-.083.113-.123.171-.079.113-.156.227-.225.343s-.133.232-.194.35c-.02.039-.037.078-.056.117-.04.081-.078.162-.114.244l-.058.139q-.047.116-.09.233c-.018.048-.035.1-.051.146-.027.079-.051.159-.074.239-.014.047-.028.094-.04.142-.024.089-.044.179-.064.269l-.026.116c-.026.128-.048.257-.065.387 0 .023 0 .046-.008.069-.013.108-.025.215-.033.323 0 .047 0 .093-.007.14 0 .086-.009.171-.01.257v.156c0 .082 0 .163.007.245 0 .052.005.1.009.157.006.084.014.168.023.251.006.049.01.1.017.147.013.1.029.193.045.289.007.035.011.071.018.106q.038.2.088.39c.008.032.019.064.028.1.026.1.054.2.085.292.015.047.031.093.048.139s.036.109.056.163a6.282 6.282 0 0 1-4.905-2.007z" class="cls-1" transform="translate(-162.576 -68.861)"/>
    </g>
</svg>
