<svg xmlns="http://www.w3.org/2000/svg" width="55.683" height="41.445" viewBox="0 0 55.683 41.445">
    <defs>
        <style>
            .cls-1{fill:#4b4f58}
        </style>
    </defs>
    <g id="Group_55" transform="translate(-620.5 -1429.293)">
        <g id="Group_51" transform="translate(620.5 1429.293)">
            <path id="Path_499" d="M675.288 1448.53l-25.651-18.811a2.182 2.182 0 0 0-2.591 0L621.4 1448.53a2.2 2.2 0 0 0-.9 1.766v4.2a1.091 1.091 0 0 0 1.09 1.09h1.464a3.142 3.142 0 0 1 .546 3.5 2 2 0 0 0 .431 1.242 1.576 1.576 0 0 0-.431 1.083v2.238a1.589 1.589 0 0 0 .031.311h-1.418a1.37 1.37 0 0 0-1.368 1.368v4.046a1.37 1.37 0 0 0 1.368 1.368h52.257a1.37 1.37 0 0 0 1.368-1.368v-4.046a1.37 1.37 0 0 0-1.368-1.368h-1.418a1.58 1.58 0 0 0 .031-.311v-2.238a1.576 1.576 0 0 0-.431-1.083 4.746 4.746 0 0 1 1.12-4 2 2 0 0 0-.143-.741h1.464a1.091 1.091 0 0 0 1.09-1.09v-4.2a2.2 2.2 0 0 0-.895-1.767zm-27.488-17.784a.914.914 0 0 1 1.085 0l24.718 18.127H623.08zm-13.957 32.689c.034.022.067.045.1.065s.083.043.125.064.07.038.106.054.088.035.133.052.073.031.11.043.1.027.143.04.073.023.111.031c.055.013.111.02.167.029.032.005.063.013.1.017a2.634 2.634 0 0 0 .27.019h.151c.05 0 .1 0 .149-.007.033 0 .065-.009.1-.013.056-.007.112-.014.167-.024l.087-.02c.056-.013.113-.025.168-.041.031-.009.06-.021.09-.031.052-.018.1-.034.156-.055.034-.014.067-.031.1-.046s.092-.04.136-.063.077-.045.115-.067.075-.042.112-.066.089-.064.132-.1c.027-.02.056-.039.082-.06q.1-.084.2-.179a2.683 2.683 0 0 0 .809-1.928v-.052h1.853a2.684 2.684 0 0 0 1.988 1.354l.048.006c.081.009.163.016.245.017h.05c.069 0 .138 0 .206-.008l.053-.005q.094-.009.186-.024l.069-.012c.072-.014.143-.03.213-.05l.074-.023c.049-.015.1-.031.144-.049l.088-.034c.063-.026.125-.054.185-.084l.079-.043q.063-.035.124-.073l.079-.05q.087-.059.17-.123l.06-.05q.064-.053.124-.11l.039-.035.019-.021q.073-.074.141-.153c.024-.028.047-.058.07-.087l.061-.081a2.718 2.718 0 0 0 .17-.261h.74a8.687 8.687 0 0 1-1.952 3.048c-.089.09-.181.177-.273.263l-.092.083c-.058.052-.117.1-.176.153s-.1.082-.145.122h-.005a8.66 8.66 0 0 1-4.352 1.867l-.144.018-.2.019-.226.017-.149.009c-.129.006-.259.01-.389.01s-.26 0-.389-.01l-.148-.009-.226-.017-.2-.019-.145-.018a8.66 8.66 0 0 1-4.343-1.86l-.015-.012c-.048-.039-.095-.08-.142-.12s-.12-.1-.179-.156l-.089-.081c-.093-.086-.185-.173-.274-.264a8.708 8.708 0 0 1-1.624-2.278c-.123-.25-.23-.508-.329-.77h3.516c0 .049.005.1.008.144s0 .084.007.125l.022.148c.008.048.011.082.019.123s.023.094.035.141.018.081.031.12l.048.135c.016.045.026.078.042.115l.06.13c.02.043.033.074.052.11s.047.081.072.122.039.07.062.1l.082.113c.028.037.046.067.071.1s.06.069.091.1.052.063.081.092.066.063.1.095.058.057.089.084.072.057.108.085.063.052.1.075.07.06.112.084zm5.6-3.732v.121h-1.485v-.741a.741.741 0 1 1 1.482 0zm32.37-.62a.742.742 0 0 1-.741.741h-26.227v-.741a.742.742 0 0 1 .741-.741h25.484a.742.742 0 0 1 .741.74zm-11.161 7.556l-.145.018-.2.019-.226.017-.148.009c-.129.006-.259.01-.389.01s-.26 0-.389-.01l-.149-.009-.226-.017-.2-.019-.144-.018a8.66 8.66 0 0 1-4.352-1.867h-.005c-.049-.04-.1-.081-.145-.122s-.118-.1-.176-.153l-.092-.083c-.092-.086-.184-.173-.273-.263a8.687 8.687 0 0 1-1.952-3.048h16.2c-.1.261-.205.519-.329.77a8.705 8.705 0 0 1-1.624 2.278c-.09.09-.181.178-.274.264l-.089.081c-.059.053-.119.1-.179.156s-.094.081-.142.12l-.015.012a8.66 8.66 0 0 1-4.339 1.855zm-14.213-5.1l.026-.069c.03-.082.058-.166.086-.25l.042-.12h3.5c.013.041.028.08.042.12.028.084.056.167.086.25l.026.069a9.884 9.884 0 0 0 1.315 2.421h-6.44a9.882 9.882 0 0 0 1.314-2.425zm-13.883-1.711h-6.94a.741.741 0 0 1 0-1.482h6.2a.742.742 0 0 1 .741.741zm-7.681 3.822v-2.238a.311.311 0 0 1 .311-.311h2.5c.013.041.028.081.042.122.028.083.056.166.086.247l.029.075a9.882 9.882 0 0 0 1.313 2.415h-3.971a.311.311 0 0 1-.313-.315zm49.694 1.679v4.046a.1.1 0 0 1-.1.1h-52.256a.1.1 0 0 1-.1-.1v-4.046a.1.1 0 0 1 .1-.1h8.064l.085.078c.061.057.122.113.184.168s.127.112.192.167l.1.08a9.814 9.814 0 0 0 4.629 2.12l.045.007c.113.019.226.036.339.05l.135.016c.092.011.184.021.277.029.076.007.152.011.228.016s.135.01.2.013c.148.007.3.01.447.01s.3 0 .447-.01c.068 0 .136-.009.2-.013l.228-.016c.093-.008.185-.018.277-.029l.135-.016c.113-.015.227-.032.339-.05l.044-.007a9.813 9.813 0 0 0 4.631-2.121l.093-.077c.066-.056.131-.112.195-.169l.181-.165c.029-.027.059-.052.087-.08h8.686l.087.08c.06.056.12.111.181.165s.129.114.195.169l.093.077a9.814 9.814 0 0 0 4.631 2.121l.044.007c.113.019.226.036.339.05l.135.016c.092.011.184.021.277.029.076.007.152.011.228.016s.135.01.2.013c.148.007.3.01.447.01s.3 0 .447-.01c.068 0 .136-.009.2-.013l.228-.016c.093-.008.185-.018.277-.029l.135-.016c.114-.015.227-.032.339-.05l.045-.007a9.815 9.815 0 0 0 4.629-2.12l.1-.08q.1-.082.192-.167c.062-.055.123-.112.184-.168l.085-.078h8.064a.1.1 0 0 1 .103.095zm-7.037-1.368a9.88 9.88 0 0 0 1.312-2.414l.029-.077c.03-.082.057-.164.085-.247.014-.041.029-.081.042-.122h2.5a.311.311 0 0 1 .311.311v2.238a.311.311 0 0 1-.311.311zm4.97-7.628a.742.742 0 0 1-.741.741h-26.174a2.016 2.016 0 0 0-2.014 2.014v.689c0 .043 0 .085-.006.127l-.012.093v.023a1.47 1.47 0 0 1-.062.232 1.432 1.432 0 0 1-.209.388 1.428 1.428 0 0 1-.308.3 1.425 1.425 0 0 1-.592.242h-.023a1.4 1.4 0 0 1-.185.015h-.049a1.336 1.336 0 0 1-.19-.019l-.048-.008a1.34 1.34 0 0 1-.177-.046h-.011a1.357 1.357 0 0 1-.161-.07l-.044-.023a1.4 1.4 0 0 1-.156-.1l-.007-.006a1.473 1.473 0 0 1-.145-.125l-.018-.017a1.534 1.534 0 0 1-.347-.546 1.553 1.553 0 0 1-.091-.395c0-.046-.007-.092-.007-.139v-.62a2.014 2.014 0 0 0-4.028 0v2.066a1.43 1.43 0 0 1-1.457 1.43 1.473 1.473 0 0 1-1.4-1.5v-2a2.016 2.016 0 0 0-2.014-2.014h-6.887a.741.741 0 1 1 0-1.482h46.834a.742.742 0 0 1 .727.745zm2.411-2.014h-53.14v-4.019a.918.918 0 0 1 .014-.151H674.9a.918.918 0 0 1 .014.151z" class="cls-1" transform="translate(-620.5 -1429.293)"/>
        </g>
        <g id="Group_52" transform="translate(645.796 1437.043)">
            <path id="Path_500" d="M855.758 1502.812h1.377a2.015 2.015 0 0 0 1.781-1.074.637.637 0 0 0-.559-.939.614.614 0 0 0-.556.326.742.742 0 0 1-.666.416h-1.377a.742.742 0 0 1-.666-.416.614.614 0 0 0-.557-.326.637.637 0 0 0-.559.939 2.016 2.016 0 0 0 1.782 1.074z" class="cls-1" transform="translate(-853.901 -1500.798)"/>
        </g>
        <g id="Group_53" transform="translate(653.372 1442.553)">
            <path id="Path_501" d="M925.662 1553.652h1.378a2.016 2.016 0 0 0 1.781-1.075.637.637 0 0 0-.559-.939.614.614 0 0 0-.556.326.742.742 0 0 1-.666.415h-1.378a.742.742 0 0 1-.666-.415.614.614 0 0 0-.557-.326.637.637 0 0 0-.559.939 2.016 2.016 0 0 0 1.782 1.075z" class="cls-1" transform="translate(-923.805 -1551.638)"/>
        </g>
        <g id="Group_54" transform="translate(638.22 1442.553)">
            <path id="Path_502" d="M784.073 1552.577a2.016 2.016 0 0 0 1.781 1.075h1.377a2.016 2.016 0 0 0 1.781-1.075.637.637 0 0 0-.559-.939.614.614 0 0 0-.557.326.742.742 0 0 1-.666.415h-1.377a.742.742 0 0 1-.666-.415.554.554 0 0 0-.492-.326h-.065a.637.637 0 0 0-.557.939z" class="cls-1" transform="translate(-783.997 -1551.638)"/>
        </g>
    </g>
</svg>
