<svg xmlns="http://www.w3.org/2000/svg" width="146.72" height="132.417" viewBox="0 0 146.72 132.417">
    <defs>
        <style>
            .cls-1{fill:#f2f2f2}
        </style>
    </defs>
    <g id="location-2" transform="translate(0 -24.955)">
        <circle id="Ellipse_9" cx="11.749" cy="11.749" r="11.749" class="cls-1" transform="translate(61.611 56.503)"/>
        <path id="Path_524" d="M190.43 58.491a43.277 43.277 0 0 0-84.321 0 42 42 0 0 0-1.073 10.976c.432 8.066 5.049 17.751 8.977 24.813 7.849 14.119 21.525 32.331 31.008 43.269a4.3 4.3 0 0 0 6.5 0 340.063 340.063 0 0 0 22.385-29.349c6.551-9.717 15.6-24.546 17.333-36.171a38.413 38.413 0 0 0-.809-13.538zM148.269 88.6a20.346 20.346 0 1 1 20.346-20.346A20.369 20.369 0 0 1 148.269 88.6z" class="cls-1" transform="translate(-74.909)"/>
        <path id="Path_525" d="M142.421 217.045a4.3 4.3 0 0 0-4.3 4.3 63.587 63.587 0 0 1-11.272 36.029 79.069 79.069 0 0 0-19.22-9.582A344.742 344.742 0 0 1 83.1 280.224a12.9 12.9 0 0 1-19.488 0A343.779 343.779 0 0 1 39.158 247.9a79.95 79.95 0 0 0-19.216 9.583A63.583 63.583 0 0 1 8.6 221.343a4.3 4.3 0 0 0-8.6 0c0 38.741 31.834 73.073 73.36 73.073a72.961 72.961 0 0 0 57.8-28.355 72.522 72.522 0 0 0 15.561-44.717 4.3 4.3 0 0 0-4.3-4.299z" class="cls-1" transform="translate(0 -137.044)"/>
    </g>
</svg>
