<svg xmlns="http://www.w3.org/2000/svg" width="122" height="54.138" viewBox="0 0 122 54.138">
    <defs>
        <style>
            .cls-1{fill:#2b2c2f;fill-rule:evenodd}
        </style>
    </defs>
    <g id="Logo" transform="translate(444.652 -18.047)">
        <path id="Path_60" d="M-302.457 18.158c-6.8-.7-12.408 1.942-17.079 6.682a45.022 45.022 0 0 0-6.232 7.821c-1 1.608-1.994 2.42-3.844 1.6a1.674 1.674 0 0 0-1.142-.375l-.619-.2a3.025 3.025 0 0 0-1.47-.517l-.281-.064a.5.5 0 0 0-.7.008c-.361-.406-.908-.366-1.355-.563l-.609-.315c-.151-.308-.446-.3-.726-.334a2.859 2.859 0 0 0-1.573-.552l-.05-.061-.074.025-.467-.2-.066-.013a4.163 4.163 0 0 0-1.678-.589l-.035-.01a1.135 1.135 0 0 0-.839-.274 58.368 58.368 0 0 0-18.113-3.9 16.113 16.113 0 0 0-9.869 2.386 8.547 8.547 0 0 0-3.978 6.3 3.928 3.928 0 0 0 .6 2.923 1.893 1.893 0 0 0 2.7.4 1.545 1.545 0 0 0-.111-2.521c-1.089-.861-.932-1.778-.366-2.821a7.177 7.177 0 0 1 2.772-2.7c3.307-1.985 6.926-1.957 10.589-1.693a59.9 59.9 0 0 1 11.492 2.441l.774.238.476.119a2.49 2.49 0 0 0 1.261.426l.53.146a2.549 2.549 0 0 0 1.244.436l.536.136a4.025 4.025 0 0 0 1.784.6l.29.161.359.076.5.21.5.136a6.2 6.2 0 0 0 2.163.789l.093.025a.1.1 0 0 0 .133.1 3.416 3.416 0 0 0 1.506.491l.282.033 1.056.311a2.273 2.273 0 0 0 1.26.426 9.269 9.269 0 0 0 1.236.413c.928.18 1.158.5.649 1.433-3.995 7.32-7.48 14.9-11.2 22.355-1.324 2.658-2.618 5.332-4.049 8.254-.39-.781-.649-1.286-.9-1.8q-5.667-11.632-11.324-23.269c-.387-.8-.8-1.614-1.806-1.148-1.07.5-.565 1.406-.212 2.131q6.395 13.138 12.82 26.261c.281.575.537 1.161 1.317 1.179.823.018 1.18-.529 1.491-1.17q1.621-3.334 3.264-6.657 5.373-10.88 10.753-21.757c.716-1.306 1.463-2.6 2.135-3.924a1.106 1.106 0 0 1 1.5-.651c1.206.311 2.443.5 3.667.74l.532.071a35.176 35.176 0 0 0 9.148 1.008 18.767 18.767 0 0 0 7.235-.975l.27-.084a6.434 6.434 0 0 0 2.764-1.089l.092.007.058-.071A5.012 5.012 0 0 0-299.4 36l.05-.034c.1-.076.205-.152.307-.23a1.817 1.817 0 0 0 .985-.836l.493-.487a.3.3 0 0 1 .157-.146l.083-.061a5.965 5.965 0 0 0 1.69-2.281c3.453-5.98-.009-13.065-6.822-13.767zm-22.562 17.136c4.623-6.411 8.869-13.122 17.428-14.814a13.856 13.856 0 0 1 6.2.073 6.385 6.385 0 0 1 4.845 7.133c-.061.529-.134 1.057-.2 1.585 0 .257 0 .493-.008.711.01-.217.013-.454.008-.711a18.262 18.262 0 0 1-1.772 3.22q-.28.3-.56.59l-2.152 1.728a3.524 3.524 0 0 0 .434-.01 3.409 3.409 0 0 1-.434.01.115.115 0 0 0-.157.072l-2.137 1.1a38.951 38.951 0 0 1-21.494-.687zm26.514-2.808zm-1.554 2.126l-.017.006zm-.345.12c-.033.008-.071.011-.1.017.031-.005.069-.008.104-.016z" class="cls-1" transform="translate(-28.371)"/>
        <path id="Path_61" d="M-376.864 82.615q.024-10.328.005-20.656a2.013 2.013 0 0 1 .584-1.72 1.633 1.633 0 0 0 .549-2.075 1.447 1.447 0 0 0-1.651-.632 1.681 1.681 0 0 0-1.5 1.692c-.091.832-.123 1.671-.2 2.764-.666-.6-1.1-1.039-1.576-1.42a14.525 14.525 0 0 0-14.747-2.575 14.427 14.427 0 0 0-9.67 11.407 13.662 13.662 0 0 0-.01 7.131 4.441 4.441 0 0 0 .092.715c1.5 5.1 4.769 8.535 9.935 9.825 5.469 1.366 10.478.337 14.689-3.651.39-.369.618-.977 1.34-1.033.06 1.164.061 2.278.191 3.376a1.572 1.572 0 0 0 1.435 1.42 1.471 1.471 0 0 0 1.652-.619 1.558 1.558 0 0 0-.383-1.982 2.539 2.539 0 0 1-.735-1.967zm-4.252-1.351a13.863 13.863 0 0 1-16.074 2.7c-4.873-2.6-7.17-8.25-5.8-14.27a13.027 13.027 0 0 1 18.564-9.077 8.549 8.549 0 0 1 5.118 7.089c.162 1.737.263 3.48.378 5.009-.151 3.144.155 6.133-2.186 8.549z" class="cls-1" transform="translate(-15.548 -15.496)"/>
        <path id="Path_62" d="M-269.15 57.531a1.587 1.587 0 0 0-1.524 1.49c-.07.478-.107.96-.174 1.438-.051.366.2.88-.205 1.067-.5.231-.708-.36-1.011-.616a14.732 14.732 0 0 0-14.814-3.035c-5.317 1.707-8.448 5.607-10.013 10.863l-.114.358.022.005a18.275 18.275 0 0 0 .557 9.425 14.9 14.9 0 0 0 5.226 6.764 2.22 2.22 0 0 1 .4.164c5.473 3.549 14.611 2.894 19.329-2.811.11-.133.25-.314.548-.138.222 1.129-.09 2.355.317 3.514a1.655 1.655 0 0 0 2.317 1.1c.982-.318 1.029-1.07.693-1.99a4.674 4.674 0 0 0-.669-1.292l-.467-.184a1.148 1.148 0 0 0 .184 1.22 1.149 1.149 0 0 1-.185-1.22l-.028-.079q-.039-1.169-.08-2.337c.053-2.613.142-5.226-.046-7.838l.045-1.191v-8.729l.013-2.043a.2.2 0 0 0 .016-.214 5.225 5.225 0 0 1 1.587-1.847.328.328 0 0 0 .063-.189l-.22-.371a1.434 1.434 0 0 0-1.767-1.284zm-16.705 1.381v-.038c.003.012.001.026 0 .038zm-2.225.966a1.387 1.387 0 0 0-.26.264 1.387 1.387 0 0 1 .26-.263zm1.076-.213a1.954 1.954 0 0 0-.645.023 1.954 1.954 0 0 1 .649-.023zm-.8.059c-.019.007-.037.022-.055.031.02-.008.038-.023.059-.031zm1.8-.048a.284.284 0 0 0 .019.06 3.114 3.114 0 0 1-.755-.04 3.114 3.114 0 0 0 .755.04.284.284 0 0 1-.015-.06zm.15-.82a.239.239 0 0 0-.08-.178.239.239 0 0 1 .081.178zm-.005.1c0 .01 0 .019-.006.029l.006-.03zm-.018.086zm-.131-.41l.019.011zm-.036-.011a.768.768 0 0 0-.2-.043.768.768 0 0 1 .201.042zm-3.853 1.77a1.617 1.617 0 0 0-.087.174 1.681 1.681 0 0 1 .084-.176zm16.6 21.175c-6.056 6.089-16.737 4.872-20.471-2.346a14.056 14.056 0 0 1 6.5-18.879l1.285-.6a16.235 16.235 0 0 1 7.2-.075 13.891 13.891 0 0 1 5.221 2.754l.3.326a9.956 9.956 0 0 1 2.191 5.573 54.746 54.746 0 0 1 .1 8.855 6.853 6.853 0 0 1-2.329 4.391z" class="cls-1" transform="translate(-58.574 -15.511)"/>
        <path id="Path_63" d="M-421.759 49.284c2.034-.007 4.071.042 6.1-.039 1.176-.047 2.115-.6 2-1.976s-1.123-1.516-2.237-1.385l-1.04 1.078-.989.227-.013.022-.346-.061-2.071-.039a.245.245 0 0 0-.27 0l-13.988.007h-2.333c-.614-.608-.256-1.371-.31-2.061a18.985 18.985 0 0 0-.219-3.9 1.679 1.679 0 0 0-1.564-1.3 1.407 1.407 0 0 0-1.456.749 1.527 1.527 0 0 0 .286 1.98c.269.266.6.5.626.937l.035.584c.24 2.929.24 2.929-2.575 2.942h-.726c-.828.01-1.824-.089-1.808 1.106.014 1.127 1.013 1.105 1.828 1.2.1.011.194 0 .29 0 3.066.067 3.046.068 3.072 3.1.059 7.119-.167 14.239.139 21.356 1.424 5.58 5.186 7.971 10.548 6.706 3-.709 5.258-3.11 5.279-5.617.006-.656.007-1.331-.848-1.435-.9-.11-1.178.507-1.258 1.248a4.085 4.085 0 0 1-2.793 3.408c-4.506 1.923-8.72-.8-8.81-5.919-.133-7.6-.016-15.211 0-22.818zm-12.819-.473c-.626.026-1.075-.126-1.2-.607.126.481.578.633 1.201.607z" class="cls-1" transform="translate(0 -8.67)"/>
    </g>
</svg>
