<svg xmlns="http://www.w3.org/2000/svg" width="110.939" height="93.045" viewBox="0 0 110.939 93.045">
    <defs>
        <style>
            .cls-1{fill:#2b2c2f}
        </style>
    </defs>
    <g id="map" transform="translate(-1 -6)">
        <path id="Path_526" d="M102.992 31.051a8.963 8.963 0 0 0-8.766 7.157H77.047l2.684-3.579a17.893 17.893 0 1 0-28.629 0l2.684 3.579H18.713A8.947 8.947 0 0 0 1 40v50.1a8.957 8.957 0 0 0 8.947 8.947h93.045a8.957 8.957 0 0 0 8.947-8.947V40a8.957 8.957 0 0 0-8.947-8.949zm-8.947 50.1h-7.157v-7.156h7.157zm0-10.736h-7.157a3.582 3.582 0 0 0-3.579 3.579v7.157a3.582 3.582 0 0 0 3.579 3.579h7.157v3.579h-7.157a3.582 3.582 0 0 0-3.579 3.579v3.579h-3.578V75.784a5.375 5.375 0 0 0-5.368-5.368h-16.1a5.375 5.375 0 0 0-5.368 5.368v19.683h-3.583V72.205a1.788 1.788 0 0 0-1.789-1.789H35a1.788 1.788 0 0 0-1.789 1.789v1.412a40.683 40.683 0 0 1-6.366 21.85h-4.5a40.638 40.638 0 0 0 7.286-23.261 1.788 1.788 0 0 0-1.789-1.789h-8.949v-3.58h5.368a5.375 5.375 0 0 0 5.368-5.368v-5.078A3.575 3.575 0 0 1 32.077 53l8.761-2.92a7.152 7.152 0 0 0 4.9-6.791v-1.5h3.579v3a8.934 8.934 0 0 1-6.118 8.487l-7.538 2.512a3.575 3.575 0 0 0-2.448 3.4v2.289a5.375 5.375 0 0 0 5.368 5.368h35.782a5.375 5.375 0 0 0 5.368-5.368v-19.69h3.579v19.682a5.375 5.375 0 0 0 5.368 5.368h5.368zM76.152 95.467H56.469V75.784a1.79 1.79 0 0 1 1.789-1.789h16.1a1.79 1.79 0 0 1 1.789 1.789zm-30.419 0H31.039a44.213 44.213 0 0 0 5.746-21.472h8.948zm-26.84-32.208V41.787h23.262v1.5a3.575 3.575 0 0 1-2.448 3.394L30.946 49.6a7.152 7.152 0 0 0-4.9 6.791v5.078a1.79 1.79 0 0 1-1.789 1.789zm75.152 0h-5.368a1.79 1.79 0 0 1-1.789-1.789V41.787h7.157zM65.416 9.579a14.316 14.316 0 0 1 11.452 22.905L65.416 47.751 53.964 32.484A14.316 14.316 0 0 1 65.416 9.579zm5.368 41.155c0 1.94-2.459 3.579-5.368 3.579s-5.368-1.639-5.368-3.579a3.051 3.051 0 0 1 1.376-2.34l2.561 3.414a1.789 1.789 0 0 0 2.863 0l2.561-3.414a3.051 3.051 0 0 1 1.376 2.34zM59.27 45.519a6.568 6.568 0 0 0-2.8 5.214c0 3.947 4.013 7.157 8.947 7.157s8.947-3.21 8.947-7.157a6.568 6.568 0 0 0-2.8-5.214l2.8-3.733h1.789v19.683a1.79 1.79 0 0 1-1.789 1.789H38.576a1.79 1.79 0 0 1-1.789-1.789v-2.288l7.54-2.514a12.51 12.51 0 0 0 8.564-11.881v-3h3.579zM4.579 40a5.368 5.368 0 0 1 10.736 0v42.945a8.932 8.932 0 0 0-10.736 0zm0 50.1a5.368 5.368 0 0 1 10.736 0 1.789 1.789 0 1 0 3.579 0V74h7.116a37.093 37.093 0 0 1-6.9 19.888l-1.133 1.584h-8.03A5.375 5.375 0 0 1 4.579 90.1zm98.413 5.368h-16.1v-3.58h8.947a1.788 1.788 0 0 0 1.785-1.788 5.368 5.368 0 1 1 5.368 5.368zm5.368-12.522a8.932 8.932 0 0 0-10.736 0V40a5.368 5.368 0 1 1 10.736 0z" class="cls-1"/>
        <path id="Path_527" d="M40.947 27.893A8.947 8.947 0 1 0 32 18.947a8.957 8.957 0 0 0 8.947 8.946zm0-14.315a5.368 5.368 0 1 1-5.368 5.368 5.375 5.375 0 0 1 5.368-5.367z" class="cls-1" transform="translate(24.469 3.157)"/>
    </g>
</svg>
