<svg xmlns="http://www.w3.org/2000/svg" width="193" height="162" viewBox="0 0 193 162">
    <defs>
        <style>
            .cls-2{fill:#2b2c2f}
        </style>
    </defs>
    <g id="map" opacity="0.05" transform="translate(-1 -6)">
        <path id="Path_526" d="M178.436 49.615a15.6 15.6 0 0 0-15.25 12.462H133.3l4.669-6.231a31.129 31.129 0 1 0-49.806 0l4.669 6.231H31.815A15.563 15.563 0 0 0 1 65.192v87.231A15.588 15.588 0 0 0 16.565 168h161.871A15.588 15.588 0 0 0 194 152.423V65.192a15.588 15.588 0 0 0-15.564-15.577zm-15.565 87.231h-12.452v-12.461h12.452zm0-18.692h-12.452a6.235 6.235 0 0 0-6.226 6.231v12.462a6.235 6.235 0 0 0 6.226 6.231h12.452v6.231h-12.452a6.235 6.235 0 0 0-6.226 6.231v6.231h-6.226V127.5a9.354 9.354 0 0 0-9.339-9.346h-28.015a9.354 9.354 0 0 0-9.339 9.346v34.269h-6.226v-40.5a3.111 3.111 0 0 0-3.113-3.115h-21.79a3.111 3.111 0 0 0-3.113 3.115v2.458a70.873 70.873 0 0 1-11.076 38.042h-7.825a70.794 70.794 0 0 0 12.676-40.5 3.111 3.111 0 0 0-3.113-3.115H32.129v-6.231h9.339a9.354 9.354 0 0 0 9.339-9.346v-8.842a6.224 6.224 0 0 1 4.258-5.91l15.241-5.084a12.451 12.451 0 0 0 8.517-11.823v-2.61h6.226v5.221a15.554 15.554 0 0 1-10.644 14.776l-13.114 4.374a6.225 6.225 0 0 0-4.258 5.913v3.985a9.354 9.354 0 0 0 9.339 9.346h62.258a9.354 9.354 0 0 0 9.339-9.346V68.308h6.226v34.269a9.354 9.354 0 0 0 9.339 9.346h9.339zm-31.129 43.615H97.5V127.5a3.115 3.115 0 0 1 3.113-3.115h28.016a3.115 3.115 0 0 1 3.113 3.115zm-52.919 0H53.259a77.026 77.026 0 0 0 10-37.385h15.564zm-46.694-56.077V68.308H72.6v2.611a6.224 6.224 0 0 1-4.258 5.91L53.1 81.913a12.451 12.451 0 0 0-8.517 11.823v8.841a3.115 3.115 0 0 1-3.113 3.115zm130.742 0h-9.339a3.115 3.115 0 0 1-3.113-3.115V68.308h12.452zm-49.806-93.461a24.929 24.929 0 0 1 19.923 39.88l-19.923 26.58-19.923-26.58a24.929 24.929 0 0 1 19.923-39.88zm9.335 71.654c0 3.377-4.277 6.231-9.339 6.231s-9.339-2.854-9.339-6.231a5.313 5.313 0 0 1 2.394-4.075l4.455 5.944a3.111 3.111 0 0 0 4.981 0l4.455-5.944a5.313 5.313 0 0 1 2.394 4.075zm-20.032-9.078a11.438 11.438 0 0 0-4.868 9.078c0 6.873 6.982 12.462 15.565 12.462s15.565-5.589 15.565-12.462a11.438 11.438 0 0 0-4.872-9.078l4.872-6.5h3.113v34.269a3.115 3.115 0 0 1-3.113 3.115H66.371a3.115 3.115 0 0 1-3.113-3.115v-3.984l13.118-4.377a21.779 21.779 0 0 0 14.9-20.686v-5.221H97.5zM7.226 65.192a9.339 9.339 0 1 1 18.677 0v74.775a15.53 15.53 0 0 0-18.677 0zm0 87.231a9.339 9.339 0 1 1 18.677 0 3.113 3.113 0 1 0 6.226 0v-28.038h12.38A64.615 64.615 0 0 1 32.5 159.012l-1.97 2.757H16.565a9.354 9.354 0 0 1-9.339-9.346zm171.21 9.346h-28.017v-6.231h15.564a3.111 3.111 0 0 0 3.113-3.115 9.339 9.339 0 1 1 9.339 9.346zm9.339-21.8a15.53 15.53 0 0 0-18.677 0V65.192a9.339 9.339 0 1 1 18.677 0z" class="cls-2"/>
        <path id="Path_527" d="M47.581 41.163A15.581 15.581 0 1 0 32 25.581a15.6 15.6 0 0 0 15.581 15.582zm0-24.93a9.349 9.349 0 1 1-9.349 9.349 9.36 9.36 0 0 1 9.349-9.349z" class="cls-2" transform="translate(65.48 8.465)"/>
    </g>
</svg>
