<svg xmlns="http://www.w3.org/2000/svg" width="62.719" height="45.267" viewBox="0 0 62.719 45.267">
    <path fill="#4b4f58" d="M3208.138 1460.711a1.475 1.475 0 0 0-1.066-.45h-2.213a5.477 5.477 0 0 0-.758-1.432l-1.076-1.462a5.482 5.482 0 0 0-.1-8.008l-.716-.653a5.479 5.479 0 0 0-.572-6.994l-2.637-2.682a4.127 4.127 0 0 0-4.871-.742l-3.312 1.776a5.48 5.48 0 0 0-2.629 6.506l-.878.41a5.483 5.483 0 0 0-2.482 7.614l-1.325.975a8.965 8.965 0 0 0-1.483-2 4.683 4.683 0 0 0-2.25-6.508l-1.291-.564a4.686 4.686 0 0 0-3.531-5.779l-.687-.15a4.682 4.682 0 0 0-3.424-4.824l-3.017-.835a3.557 3.557 0 0 0-3.954 1.549l-1.647 2.662a4.682 4.682 0 0 0 .763 5.866l-.4.577a4.709 4.709 0 0 0-.534 1.006 28.53 28.53 0 0 0-8.9-2.655l-.467-.05-.23.408c-.219.388-5.1 9.18-2.427 15.99h-2.695a1.491 1.491 0 0 0-1.49 1.531 31.37 31.37 0 0 0 4.005 14.538 7.332 7.332 0 0 0 6.386 3.719h41.935a7.333 7.333 0 0 0 6.386-3.719 31.373 31.373 0 0 0 4.005-14.538 1.482 1.482 0 0 0-.418-1.082zm-24.042-3.8l.117-.089 2.573-1.893-.368-.5a4.168 4.168 0 0 1-.8-3.077 4.047 4.047 0 0 1 2.3-3.077l2.019-.942-.384-1.187a4.055 4.055 0 0 1 1.943-4.822l3.312-1.776a2.7 2.7 0 0 1 3.181.485l2.633 2.682a4.055 4.055 0 0 1 .418 5.182l-.719 1.019 1.578 1.438a4.165 4.165 0 0 1 1.387 2.86 4.048 4.048 0 0 1-1.648 3.468l-.574.422 1.893 2.573a4.1 4.1 0 0 1 .361.588h-9.6l2.572-12.862a.713.713 0 0 0-.559-.838.713.713 0 0 0-.839.559l-2.628 13.141h-7.7c.008-.153.013-.305.013-.456s0-.281-.011-.421c0-.042-.005-.084-.008-.126-.006-.1-.013-.2-.023-.3 0-.045-.009-.091-.014-.136-.011-.1-.023-.2-.037-.294l-.018-.122c-.018-.114-.039-.227-.061-.34 0-.022-.008-.045-.013-.067-.029-.137-.06-.274-.095-.41 0-.019-.01-.038-.015-.057q-.045-.169-.1-.336c-.012-.041-.026-.081-.039-.121-.01-.059-.027-.116-.043-.172zm-15.877 3.354c-.01-.154-.017-.307-.017-.458s.005-.29.014-.434c0-.038.006-.076.009-.114.008-.109.018-.219.031-.327 0-.039.01-.078.015-.117.015-.112.032-.223.052-.334l.017-.1c.026-.135.055-.27.089-.4v-.019c.035-.138.075-.275.118-.411l.047-.139q.041-.121.085-.24c.026-.068.052-.135.08-.2.021-.052.043-.1.066-.154.036-.081.071-.162.11-.242l.015-.03c.089-.182.186-.359.288-.533l.057-.1q.08-.131.166-.259l.044-.065a7.557 7.557 0 0 1 .637-.806 7.535 7.535 0 0 1 1.043-.95l.049-.036a7.533 7.533 0 0 1 .774-.5c.058-.032.115-.064.173-.1s.127-.066.191-.1c.086-.043.174-.083.262-.122l.124-.056c.132-.056.267-.108.4-.156l.113-.038q.167-.057.336-.106l.109-.031a7.511 7.511 0 0 1 .9-.185l.111-.014q.177-.023.356-.036l.126-.01c.154-.01.308-.016.463-.016.122 0 .243 0 .363.009l.142.01c.071 0 .143.01.213.016s.119.013.178.02l.171.022c.065.009.13.02.2.031l.151.027q.1.019.2.042l.139.032c.068.016.136.034.2.052l.136.039.2.06.141.048.185.065c.061.022.108.042.162.064s.1.042.157.064c.072.031.143.064.215.1l.1.045a7.519 7.519 0 0 1 3.729 4.056c.018.047.037.093.054.141.024.066.045.133.067.2l.048.147.06.21.038.141c.019.075.036.15.052.226l.029.131c.016.08.03.16.043.241.007.041.015.081.021.122.013.084.022.169.032.254 0 .038.01.077.014.115.009.089.015.179.021.268 0 .035.006.07.008.106q.009.187.009.376c0 .151-.007.3-.017.458zm-4.195-16.265a3.258 3.258 0 0 1-.589-4.135l1.646-2.662a2.125 2.125 0 0 1 2.362-.925l3.016.836a3.258 3.258 0 0 1 2.376 3.435l-.1 1.14 1.915.417a3.26 3.26 0 0 1 2.292 4.49l-.286.653 2.547 1.113a3.263 3.263 0 0 1 1.706 4.236 8.9 8.9 0 0 0-.972-.614l-.054-.029q-.148-.079-.3-.153l-.094-.046q-.137-.065-.277-.125l-.1-.044q-.177-.074-.357-.141l-.141-.049c-.075-.026-.151-.053-.227-.077s-.124-.038-.186-.056l-.192-.055-.2-.051-.2-.046c-.067-.015-.124-.029-.186-.041q-.181-.036-.362-.065l-.16-.022c-.083-.012-.165-.022-.248-.032l-.164-.016c-.089-.008-.178-.015-.268-.02l-.14-.008c-.137-.006-.274-.01-.411-.01-.161 0-.322 0-.481.013l-.13.01c-.116.008-.232.017-.347.029l-.148.019c-.109.014-.217.028-.325.046l-.152.027c-.1.019-.208.039-.312.061l-.158.036c-.1.023-.2.048-.3.075l-.167.047c-.091.027-.182.055-.272.085l-.182.062c-.079.028-.158.058-.237.089l-.208.082c-.069.028-.12.052-.18.079-.085.037-.169.074-.253.114l-.062.031a8.906 8.906 0 0 0-2.921 2.285c-.013-.049-.03-.1-.044-.144l-.06-.2c-.028-.091-.057-.182-.088-.272s-.056-.157-.084-.235-.055-.151-.085-.226c-.038-.1-.079-.193-.121-.289l-.07-.165c-.068-.151-.139-.3-.214-.445q-.088-.171-.182-.338l-.045-.076c-.05-.087-.1-.174-.154-.259l-.046-.073c-.056-.089-.112-.176-.171-.263l-.036-.053q-.1-.146-.2-.288l-.014-.02a13.506 13.506 0 0 0-3.921-3.481 3.261 3.261 0 0 1 .44-.893l1.122-1.607zm-10.55 1.39a26.684 26.684 0 0 1 8.885 2.979l.08.047q.218.13.433.266l.032.02q.228.146.451.3l.085.06q.17.119.335.243l.135.1q.148.114.292.232l.119.1q.188.157.369.321l.127.119c.1.089.191.181.283.274l.086.087q.15.154.294.314l.074.083q.146.167.285.34c.033.04.064.081.1.122.089.115.176.232.26.351l.038.053c.094.136.184.276.271.419l.063.106c.087.146.171.294.249.446l.011.023q.082.16.158.326c.024.052.045.105.068.157s.058.132.085.2.056.147.084.222l.053.141c.031.089.061.18.09.272l.031.1c.032.1.062.209.09.314l.017.062q.045.173.085.35l.008.034q.042.188.077.381v.012q.036.2.066.4c-.024.047-.044.1-.067.143s-.037.077-.055.116c-.045.1-.091.194-.133.292-.029.069-.056.139-.083.208s-.059.145-.086.218c-.054.148-.1.3-.151.451l-.03.107c-.037.125-.071.25-.1.377l-.028.12q-.043.184-.078.371l-.023.127c-.021.122-.039.246-.055.37l-.017.132c-.014.125-.025.251-.034.378 0 .041-.007.083-.01.124-.009.165-.015.332-.015.5 0 .151.006.3.013.456h-4.74l-5.266-10.531a.712.712 0 0 0-.956-.319.713.713 0 0 0-.319.956l4.947 9.894h-8.878c-2.552-5.44.951-13.005 1.895-14.862zm49.841 30.237a5.906 5.906 0 0 1-5.145 2.993h-41.935a5.905 5.905 0 0 1-5.145-2.993 29.936 29.936 0 0 1-3.822-13.876.067.067 0 0 1 .019-.05.06.06 0 0 1 .045-.019h59.739a.06.06 0 0 1 .045.019.066.066 0 0 1 .02.051 29.936 29.936 0 0 1-3.821 13.88z" transform="translate(-3145.844 -1434.782)"/>
</svg>
