<svg xmlns="http://www.w3.org/2000/svg" width="87.605" height="87.499" viewBox="0 0 87.605 87.499">
    <defs>
        <style>
            .cls-1{fill:#2b2c2f;stroke:#2b2c2f;stroke-width:1.5px}
        </style>
    </defs>
    <g id="phone-5" transform="translate(-1.138 -1.044)">
        <path id="Path_528" d="M67.484 87.792a35.8 35.8 0 0 1-12.315-2.548c-9.865-3.686-20.556-10.976-30.1-20.524S8.229 44.484 4.543 34.618C.738 24.439 1.207 16.269 5.864 11.612l8.824-8.824a2.7 2.7 0 0 1 3.808 0L35.1 19.4a2.7 2.7 0 0 1 0 3.809l-6.746 6.74c-1.635 1.635-1.708 4.889-.2 8.925a39.911 39.911 0 0 0 9.237 13.52 39.911 39.911 0 0 0 13.519 9.242c4.037 1.507 7.289 1.435 8.925-.2l6.74-6.746a2.759 2.759 0 0 1 3.809 0L87 71.293a2.7 2.7 0 0 1 0 3.807l-8.824 8.824c-2.572 2.574-6.222 3.868-10.69 3.868zM16.585 4.451a.245.245 0 0 0-.173.071l-8.824 8.824c-8.394 8.394.221 30.664 19.2 49.645s41.267 27.593 49.653 19.2l8.824-8.824a.245.245 0 0 0 0-.343L68.658 56.413a.245.245 0 0 0-.343 0l-6.74 6.746c-2.378 2.379-6.467 2.65-11.52.763a42.375 42.375 0 0 1-14.395-9.8 42.375 42.375 0 0 1-9.8-14.395c-1.886-5.048-1.615-9.139.764-11.52l6.746-6.74a.245.245 0 0 0 0-.343l-16.6-16.6a.245.245 0 0 0-.176-.071z" class="cls-1"/>
        <path id="Path_529" d="M26.464 28.989a1.225 1.225 0 0 1-.866-.359L6.912 9.948a1.225 1.225 0 1 1 1.733-1.733L27.322 26.9a1.226 1.226 0 0 1-.858 2.091z" class="cls-1" transform="translate(1.028 1.32)"/>
        <path id="Path_530" d="M68.8 71.326a1.225 1.225 0 0 1-.866-.359L49.249 52.286a1.226 1.226 0 0 1 1.733-1.728l18.683 18.677a1.226 1.226 0 0 1-.866 2.092z" class="cls-1" transform="translate(10.587 10.88)"/>
        <path id="Path_531" d="M77.717 42.942a1.226 1.226 0 0 1-1.226-1.226A36.807 36.807 0 0 0 39.726 4.951a1.226 1.226 0 0 1 0-2.451 39.261 39.261 0 0 1 39.216 39.217 1.226 1.226 0 0 1-1.225 1.225z" class="cls-1" transform="translate(8.233 .113)"/>
        <path id="Path_532" d="M66.026 40.791a1.226 1.226 0 0 1-1.226-1.226A25.1 25.1 0 0 0 39.726 14.49a1.226 1.226 0 0 1 0-2.451 27.558 27.558 0 0 1 27.526 27.526 1.226 1.226 0 0 1-1.226 1.226z" class="cls-1" transform="translate(8.233 2.264)"/>
        <path id="Path_533" d="M54.337 38.64a1.226 1.226 0 0 1-1.226-1.226 13.4 13.4 0 0 0-13.385-13.386 1.226 1.226 0 1 1 0-2.451 15.856 15.856 0 0 1 15.837 15.837 1.226 1.226 0 0 1-1.226 1.226z" class="cls-1" transform="translate(8.233 4.415)"/>
    </g>
</svg>
