<svg xmlns="http://www.w3.org/2000/svg" width="162.699" height="162.5" viewBox="0 0 162.699 162.5">
    <defs>
        <style>
            .cls-2{fill:#2b2c2f;stroke:#2b2c2f;stroke-width:1.5px}
        </style>
    </defs>
    <g id="phone-5" opacity="0.05" transform="translate(-1.046 -1.251)">
        <path id="Path_528" d="M124.9 163a67.185 67.185 0 0 1-23.111-4.781c-18.514-6.918-38.576-20.6-56.492-38.516S13.695 81.726 6.777 63.212C-.364 44.109.517 28.776 9.256 20.037L25.815 3.478a5.06 5.06 0 0 1 7.146 0l31.166 31.168a5.06 5.06 0 0 1 0 7.148L51.466 54.443c-3.068 3.068-3.206 9.174-.375 16.75a74.9 74.9 0 0 0 17.334 25.372A74.9 74.9 0 0 0 93.8 113.908c7.576 2.829 13.68 2.693 16.75-.375l12.649-12.661a5.177 5.177 0 0 1 7.148 0l31.175 31.165a5.06 5.06 0 0 1 0 7.146l-16.559 16.559c-4.832 4.83-11.681 7.258-20.063 7.258zM29.376 6.6a.46.46 0 0 0-.324.133l-16.56 16.558c-15.752 15.752.414 57.545 36.035 93.165s77.444 51.781 93.182 36.032l16.559-16.559a.46.46 0 0 0 0-.644L127.1 104.113a.46.46 0 0 0-.644 0l-12.649 12.661c-4.462 4.464-12.136 4.972-21.619 1.433a79.523 79.523 0 0 1-27.014-18.4 79.522 79.522 0 0 1-18.4-27.014c-3.54-9.473-3.031-17.15 1.433-21.619l12.661-12.649a.46.46 0 0 0 0-.644L29.707 6.732a.46.46 0 0 0-.331-.133z" class="cls-2"/>
        <path id="Path_529" d="M44.1 47.71a2.311 2.311 0 0 1-1.634-.677L7.23 11.8a2.311 2.311 0 1 1 3.27-3.267l35.22 35.234a2.311 2.311 0 0 1-1.62 3.943z" class="cls-2" transform="translate(5.977 7.677)"/>
        <path id="Path_530" d="M86.392 90a2.311 2.311 0 0 1-1.634-.677L49.524 54.094a2.311 2.311 0 0 1 3.268-3.259l35.234 35.222A2.311 2.311 0 0 1 86.392 90z" class="cls-2" transform="translate(60.761 62.464)"/>
        <path id="Path_531" d="M112.457 78.769a2.311 2.311 0 0 1-2.311-2.311A69.414 69.414 0 0 0 40.811 7.122a2.311 2.311 0 0 1 0-4.622 74.041 74.041 0 0 1 73.957 73.957 2.311 2.311 0 0 1-2.311 2.312z" class="cls-2" transform="translate(47.075 .655)"/>
        <path id="Path_532" d="M90.411 66.261A2.311 2.311 0 0 1 88.1 63.95a47.344 47.344 0 0 0-47.289-47.289 2.311 2.311 0 1 1 0-4.622A51.971 51.971 0 0 1 92.722 63.95a2.311 2.311 0 0 1-2.311 2.311z" class="cls-2" transform="translate(47.075 13.162)"/>
        <path id="Path_533" d="M68.367 53.755a2.311 2.311 0 0 1-2.311-2.311A25.273 25.273 0 0 0 40.811 26.2a2.311 2.311 0 1 1 0-4.622 29.9 29.9 0 0 1 29.867 29.866 2.311 2.311 0 0 1-2.311 2.311z" class="cls-2" transform="translate(47.35 25.391)"/>
    </g>
</svg>
