<svg xmlns="http://www.w3.org/2000/svg" width="73.389" height="92.819" viewBox="0 0 73.389 92.819">
    <defs>
        <style>
            .cls-1{fill:#2b2c2f}
        </style>
    </defs>
    <g id="subway" transform="translate(-51.924)">
        <g id="Group_215" transform="translate(51.924)">
            <g id="Group_214">
                <path id="Path_534" d="M111.69 79.329h.15a13.471 13.471 0 0 0 13.473-13.469q0-.4-.023-.793l-2.419-41.12A25.471 25.471 0 0 0 97.471 0h-17.7a25.471 25.471 0 0 0-25.4 23.949l-2.419 41.12A13.471 13.471 0 0 0 64.6 79.306q.394.023.79.023h.15L54.631 90.245a1.5 1.5 0 0 0 2.08 2.153l.037-.037L69.78 79.329h37.677l13.033 13.033a1.5 1.5 0 0 0 2.116-2.116zM79.767 2.994h17.7A22.464 22.464 0 0 1 119.7 22.452H57.535A22.464 22.464 0 0 1 79.767 2.994zM57.276 25.445h62.685l1.32 22.452H55.956zm8.119 50.891a10.495 10.495 0 0 1-10.465-11.1l.85-14.35h65.679l.844 14.353a10.477 10.477 0 0 1-9.844 11.075q-.307.018-.615.018z" class="cls-1" transform="translate(-51.924)"/>
                <path id="Path_535" d="M335.018 295.484a7.484 7.484 0 1 0-7.484 7.484 7.484 7.484 0 0 0 7.484-7.484zm-7.484 4.49a4.49 4.49 0 1 1 4.49-4.49 4.49 4.49 0 0 1-4.49 4.49z" class="cls-1" transform="translate(-269.884 -234.116)"/>
                <path id="Path_536" d="M186.476 72h-32.929a1.5 1.5 0 0 0 0 2.994h32.929a1.5 1.5 0 1 0 0-2.994z" class="cls-1" transform="translate(-133.317 -58.529)"/>
                <path id="Path_537" d="M211.508 328h-17.961a1.5 1.5 0 0 0 0 2.994h17.961a1.5 1.5 0 0 0 0-2.994z" class="cls-1" transform="translate(-165.833 -266.632)"/>
                <path id="Path_538" d="M226.527 360h-8.981a1.5 1.5 0 0 0 0 2.994h8.981a1.5 1.5 0 0 0 0-2.994z" class="cls-1" transform="translate(-185.342 -292.645)"/>
                <path id="Path_539" d="M103.534 288a7.484 7.484 0 1 0 7.484 7.484 7.484 7.484 0 0 0-7.484-7.484zm0 11.974a4.49 4.49 0 1 1 4.49-4.49 4.49 4.49 0 0 1-4.49 4.49z" class="cls-1" transform="translate(-87.794 -234.116)"/>
                <path id="Path_540" d="M146.424 144H89.547a1.5 1.5 0 0 0-1.5 1.5v16.465a1.5 1.5 0 0 0 1.5 1.5h56.878a1.5 1.5 0 0 0 1.5-1.5V145.5a1.5 1.5 0 0 0-1.501-1.5zm-1.5 16.465h-53.88v-13.471h53.884z" class="cls-1" transform="translate(-81.291 -117.058)"/>
            </g>
        </g>
    </g>
</svg>
