<svg xmlns="http://www.w3.org/2000/svg" width="127" height="161" viewBox="0 0 127 161">
    <g opacity="0.05">
        <g>
            <g>
                <path d="M155.349 137.6h.259a23.339 23.339 0 0 0 23.316-23.362q0-.688-.04-1.375L174.7 41.54A44.121 44.121 0 0 0 130.742 0h-30.636A44.122 44.122 0 0 0 56.15 41.54l-4.186 71.324a23.347 23.347 0 0 0 21.9 24.7q.682.04 1.366.04h.259l-18.88 18.932a2.593 2.593 0 0 0 3.6 3.735l.063-.064L82.824 137.6h65.2l22.553 22.606a2.593 2.593 0 0 0 3.663-3.671zM100.106 5.193h30.637a38.9 38.9 0 0 1 38.472 33.751H61.634a38.9 38.9 0 0 1 38.472-33.751zm-38.92 38.943h108.477l2.285 38.944H58.9zm14.049 88.273a18.186 18.186 0 0 1-18.111-19.246l1.476-24.89h113.653l1.461 24.9a18.158 18.158 0 0 1-17.035 19.209q-.532.031-1.065.031z" transform="translate(-51.924) translate(51.924) translate(-51.924)"/>
                <path d="M346.145 301.047a13.047 13.047 0 1 0-13.045 13.048 13.047 13.047 0 0 0 13.045-13.048zm-13.045 7.829a7.828 7.828 0 1 1 7.828-7.828 7.828 7.828 0 0 1-7.828 7.828z" transform="translate(-51.924) translate(51.924) translate(-233.537 -194.626)"/>
                <path d="M212.068 72h-57.409a2.609 2.609 0 0 0 0 5.219h57.408a2.609 2.609 0 1 0 0-5.219z" transform="translate(-51.924) translate(51.924) translate(-119.863 -48.515)"/>
                <path d="M225.973 328h-31.314a2.609 2.609 0 0 0 0 5.219h31.314a2.609 2.609 0 0 0 0-5.219z" transform="translate(-51.924) translate(51.924) translate(-146.816 -221.571)"/>
                <path d="M234.316 360h-15.657a2.609 2.609 0 0 0 0 5.219h15.657a2.609 2.609 0 0 0 0-5.219z" transform="translate(-51.924) translate(51.924) translate(-162.987 -243.188)"/>
                <path d="M109.1 288a13.047 13.047 0 1 0 13.047 13.047A13.047 13.047 0 0 0 109.1 288zm0 20.876a7.828 7.828 0 1 1 7.828-7.828 7.828 7.828 0 0 1-7.828 7.828z" transform="translate(-51.924) translate(51.924) translate(-81.657 -194.626)"/>
                <path d="M188.9 144H90.636a2.6 2.6 0 0 0-2.586 2.609v28.7a2.6 2.6 0 0 0 2.586 2.609H188.9a2.6 2.6 0 0 0 2.586-2.609v-28.7A2.6 2.6 0 0 0 188.9 144zm-2.586 28.7H93.222v-23.481h93.09z" transform="translate(-51.924) translate(51.924) translate(-76.266 -97.33)"/>
            </g>
        </g>
    </g>
</svg>
