<svg xmlns="http://www.w3.org/2000/svg" width="15.908" height="12.727" viewBox="0 0 15.908 12.727">
    <path fill="#e83137" d="M5.935 12.727a13.958 13.958 0 0 1-2.108-.164 10.037 10.037 0 0 1-2.884-1.026L0 11.034l1.02-.328c1.115-.359 1.794-.581 2.634-.929a3.45 3.45 0 0 1-1.8-2.04l-.237-.7.195.029a3.476 3.476 0 0 1-.443-.534A3.226 3.226 0 0 1 .8 4.576l.045-.615.377.143a3.391 3.391 0 0 1-.341-.935A3.487 3.487 0 0 1 1.265.775l.329-.589.438.514a8.122 8.122 0 0 0 5.231 2.88 3 3 0 0 1 .19-1.625A3.064 3.064 0 0 1 8.719.537a3.87 3.87 0 0 1 2.205-.529 3.566 3.566 0 0 1 2.166.873 7.387 7.387 0 0 0 .793-.259c.174-.064.371-.137.618-.22L15.409.1l-.593 1.654.121-.008.97-.043-.574.766c-.033.044-.041.056-.053.074-.046.068-.1.153-.891 1.18a1.426 1.426 0 0 0-.277.944 8.742 8.742 0 0 1-.5 3.591 6.349 6.349 0 0 1-1.745 2.527 7.78 7.78 0 0 1-3.653 1.726 11.5 11.5 0 0 1-2.279.216zm0 0"/>
</svg>
